<svg width="501" height="1053" viewBox="0 0 501 1053" fill="none" xmlns="http://www.w3.org/2000/svg">
<path d="M221.744 33.7958C222.052 33.3351 221.744 13.6436 234.359 8.41547C241.857 5.30687 250.205 8.41547 250.205 8.41547C250.205 8.41547 261.896 -1.12227 271.433 0.109869C280.971 1.33918 290.662 10.7243 290.662 10.7243C290.662 10.7243 311.399 4.57213 323.952 15.7998C336.502 27.0304 333.272 43.9496 332.659 44.8737C332.046 45.7978 344.658 54.7195 351.271 70.7175C357.886 86.7155 343.273 97.4825 339.58 109.021C335.889 120.557 356.346 140.401 356.346 140.401C356.346 140.401 338.195 158.708 298.198 131.324C258.199 103.943 221.744 33.7958 221.744 33.7958Z" fill="#CC5050"/>
<path d="M356.343 140.398C356.343 140.398 356.242 140.299 356.075 140.133C349.671 138.044 334.255 132.169 328.346 122.399C320.809 109.94 334.806 104.709 338.345 94.0941C341.883 83.4797 335.575 84.8644 330.5 74.866C325.424 64.8676 331.576 60.2528 331.576 60.2528C331.576 60.2528 327.578 59.1761 318.961 50.099C310.347 41.0219 315.884 29.0255 315.884 29.0255C315.884 29.0255 312.962 33.6404 300.502 31.3343C288.042 29.0255 289.887 21.2483 289.887 21.2483C289.887 21.2483 271.888 18.5665 268.042 5.95122C267.248 3.3513 267.135 1.51156 267.418 0.186166C258.903 1.34483 250.199 8.41265 250.199 8.41265C250.199 8.41265 241.854 5.30405 234.353 8.41265C221.738 13.6436 222.046 33.3323 221.738 33.793C221.738 33.793 258.196 103.94 298.19 131.321C338.192 158.705 356.343 140.398 356.343 140.398Z" fill="#BA4545"/>
<path d="M312.885 27.4118C312.885 27.4118 316.884 21.7203 314.423 17.5661C311.961 13.4119 302.884 12.2588 302.884 12.2588C302.884 12.2588 316.118 16.4922 312.885 27.4118Z" fill="#E58585"/>
<path d="M346.729 84.791C346.729 84.791 349.423 78.7151 346.269 69.0247C343.115 59.3344 335.731 55.5645 335.731 55.5645C335.731 55.5645 349.191 72.8681 346.729 84.791Z" fill="#E58585"/>
<path d="M250.202 804.986C257.84 804.876 266.222 804.525 275.254 803.824C321.23 800.252 392.542 756.531 431.922 773.589C471.302 790.647 440.126 834.06 440.126 834.06C440.126 834.06 478.687 808.626 477.864 740.533C477.045 672.438 440.406 529.174 424.984 419.751C409.563 310.328 430.077 282.331 367.416 272.076C333.057 266.452 285.84 268.229 250.199 270.982C214.557 268.229 167.341 266.452 132.982 272.076C70.3211 282.331 90.8379 310.328 75.4136 419.751C59.9921 529.174 23.353 672.438 22.5335 740.533C21.7139 808.629 60.2719 834.06 60.2719 834.06C60.2719 834.06 29.0955 790.644 68.4758 773.589C107.856 756.531 179.17 800.252 225.144 803.824C234.181 804.525 242.563 804.876 250.202 804.986Z" fill="#7C4949"/>
<path d="M396.134 260.41C396.134 260.41 508.543 667.328 499.93 765.052C491.316 862.775 402.71 868.93 406.403 870.159C410.094 871.388 450.752 814.781 448.268 699.101C445.784 583.422 372.313 283.806 372.313 283.806L396.134 260.41Z" fill="#CC5050"/>
<path d="M104.267 260.41C104.267 260.41 -8.14275 667.328 0.470899 765.052C9.08455 862.775 97.6909 868.93 93.9974 870.159C90.3066 871.388 49.649 814.781 52.133 699.101C54.6171 583.422 128.087 283.806 128.087 283.806L104.267 260.41Z" fill="#CC5050"/>
<path d="M328.962 950.044L338.921 977.81C338.921 977.81 349.575 989.425 361.572 1000.5C373.571 1011.57 398.182 1014.34 405.567 1022.34C412.951 1030.34 409.258 1051.07 409.258 1051.07C409.258 1051.07 377.878 1053.72 353.571 1050.34C329.268 1046.95 319.43 1032.5 312.043 1030.96C304.656 1029.42 300.654 1039.88 300.654 1039.88L280.041 1035.88C280.041 1035.88 276.656 985.731 285.58 973.424C294.505 961.119 328.962 950.044 328.962 950.044Z" fill="#728596"/>
<path d="M171.441 950.044L161.482 977.81C161.482 977.81 150.828 989.425 138.832 1000.5C126.833 1011.57 102.221 1014.34 94.8367 1022.34C87.4523 1030.34 91.1459 1051.07 91.1459 1051.07C91.1459 1051.07 122.526 1053.72 146.832 1050.34C171.139 1046.95 180.973 1032.5 188.36 1030.96C195.748 1029.42 199.749 1039.88 199.749 1039.88L220.362 1035.88C220.362 1035.88 223.745 985.731 214.823 973.424C205.898 961.119 171.441 950.044 171.441 950.044Z" fill="#728596"/>
<path d="M338.104 748.44C338.104 748.44 346.498 750.789 347.012 761.454C347.526 772.119 344.551 788.117 347.012 811.09C349.473 834.062 334.809 978.451 333.577 978.042C332.345 977.632 290.814 988.503 291.224 987.271C291.634 986.039 283.43 867.813 281.378 839.042C279.326 810.27 272.355 788.598 281.378 773.592C290.402 758.583 338.104 748.44 338.104 748.44Z" fill="#3D4144"/>
<path d="M162.299 748.44C162.299 748.44 153.906 750.789 153.391 761.454C152.877 772.119 155.853 788.117 153.391 811.09C150.93 834.062 165.594 978.451 166.826 978.042C168.058 977.632 209.589 988.503 209.179 987.271C208.77 986.039 216.974 867.813 219.025 839.042C221.077 810.27 228.049 788.598 219.025 773.592C210.002 758.583 162.299 748.44 162.299 748.44Z" fill="#3D4144"/>
<path d="M380.647 230.644C380.647 230.644 409.362 224.901 426.18 237.618C442.997 250.335 445.049 277.818 443.407 296.687C441.765 315.556 442.022 343.036 441.355 368.883C440.674 395.309 445.252 398.211 445.252 398.211C445.252 398.211 455.087 423.111 456.534 449.693C457.921 475.197 436.639 570.498 436.639 570.498L398.117 561.269C398.117 561.269 393.567 505.435 391.106 473.688C388.645 441.941 384.748 432.974 385.567 413.285C386.387 393.596 363.688 361.318 351.582 324.232C339.481 287.15 380.647 230.644 380.647 230.644Z" fill="#3D4144"/>
<path d="M119.756 230.644C119.756 230.644 91.0414 224.901 74.2238 237.618C57.4063 250.335 55.3546 277.818 56.9966 296.687C58.6385 315.556 58.3813 343.036 59.0482 368.883C59.7293 395.309 55.1512 398.211 55.1512 398.211C55.1512 398.211 45.3167 423.111 43.8698 449.693C42.4822 475.197 63.7648 570.498 63.7648 570.498L102.286 561.269C102.286 561.269 106.836 505.435 109.297 473.688C111.759 441.941 115.656 432.974 114.836 413.285C114.017 393.596 136.715 361.318 148.822 324.232C160.923 287.15 119.756 230.644 119.756 230.644Z" fill="#3D4144"/>
<path d="M250.202 571.937L262.286 570.73L278.046 775.092C298.557 778.373 349.601 758.964 349.601 758.964C349.601 758.964 352.754 600.239 351.113 556.758C349.471 513.278 342.702 446.618 342.702 446.618L325.269 438.824L250.202 434.52L175.135 438.824L157.701 446.618C157.701 446.618 150.933 513.278 149.291 556.758C147.649 600.239 150.803 758.964 150.803 758.964C150.803 758.964 201.849 778.373 222.36 775.092L238.121 570.73L250.202 571.937Z" fill="#3D4144"/>
<path d="M256.97 593.576C256.97 593.576 356.406 539.121 363.603 541.275C370.801 543.428 357.265 564.965 356.649 584.962C355.53 621.33 372.409 734.308 352.254 756.011C348.255 760.318 353.178 733.553 322.72 736.322C292.261 739.092 291.032 755.706 282.723 760.013C274.418 764.32 271.34 768.013 270.416 760.013C269.492 752.012 260.356 610.806 256.97 593.576Z" fill="#728596"/>
<path d="M243.433 593.576C243.433 593.576 143.998 539.121 136.8 541.275C129.602 543.428 143.139 564.965 143.755 584.962C144.874 621.33 127.994 734.308 148.149 756.011C152.148 760.318 147.225 733.553 177.684 736.322C208.142 739.092 209.372 755.706 217.68 760.013C225.986 764.32 229.063 768.013 229.987 760.013C230.911 752.012 240.048 610.806 243.433 593.576Z" fill="#728596"/>
<path d="M250.202 574.808C253.093 574.808 256.187 574.808 258.507 574.808C264.351 574.808 348.959 519.136 355.264 516.66C361.569 514.185 346.495 453.59 346.495 449.283C346.495 444.976 342.699 446.618 342.699 446.618L336.033 442.515L250.196 447.726L164.359 442.515L157.693 446.618C157.693 446.618 153.897 444.976 153.897 449.283C153.897 453.59 138.823 514.185 145.128 516.66C151.433 519.136 236.041 574.808 241.885 574.808C244.216 574.808 247.311 574.808 250.202 574.808Z" fill="#728596"/>
<path d="M250.202 574.808C253.093 574.808 256.187 574.808 258.507 574.808C279.12 574.808 348.959 519.136 355.264 516.66C357.669 515.716 356.959 506.306 355.165 494.793C331.785 511.63 294.847 522.504 253.259 522.504C252.236 522.504 251.216 522.499 250.199 522.485C249.182 522.499 248.161 522.504 247.138 522.504C205.551 522.504 168.615 511.63 145.233 494.793C143.438 506.303 142.729 515.714 145.134 516.66C151.439 519.136 221.278 574.808 241.89 574.808C244.216 574.808 247.311 574.808 250.202 574.808Z" fill="#576673"/>
<path d="M363.603 229.621L367.419 222.236C367.419 222.236 377.315 202.774 404.029 202.751C448.742 202.717 468.021 257.72 468.021 257.72C468.021 257.72 393.364 320.07 348.241 318.021C303.119 315.969 363.603 229.621 363.603 229.621Z" fill="#728596"/>
<path d="M136.797 229.621L132.985 222.236C132.985 222.236 123.088 202.774 96.374 202.751C51.6611 202.717 32.3821 257.72 32.3821 257.72C32.3821 257.72 107.039 320.07 152.162 318.021C197.285 315.969 136.797 229.621 136.797 229.621Z" fill="#728596"/>
<path d="M459.156 239.65C453.058 245.831 439.626 246.441 426.18 237.618C406.491 224.698 391.414 242.541 378.494 229.352C374.486 225.263 373.593 219.628 374.257 213.801C369.501 218.198 367.419 222.236 367.419 222.236L363.603 229.621C363.603 229.621 303.119 315.969 348.241 318.021C393.364 320.072 468.021 257.72 468.021 257.72C468.021 257.72 465.173 249.623 459.156 239.65Z" fill="#576673"/>
<path d="M41.2472 239.65C47.3458 245.831 60.7777 246.441 74.2238 237.618C93.9126 224.698 108.989 242.541 121.91 229.352C125.917 225.263 126.807 219.628 126.146 213.801C130.902 218.198 132.985 222.236 132.985 222.236L136.797 229.621C136.797 229.621 197.285 315.969 152.159 318.021C107.034 320.072 32.3793 257.72 32.3793 257.72C32.3793 257.72 35.2279 249.623 41.2472 239.65Z" fill="#576673"/>
<path d="M366.907 306.123C366.907 306.123 396.442 297.51 421.669 278.231C446.897 258.952 460.886 244.666 463.305 245.311C465.724 245.958 472.534 253.003 472.125 257.31C471.715 261.617 435.412 293.613 408.336 306.123C381.263 318.634 365.469 322.328 365.469 322.328L366.907 306.123Z" fill="#728596"/>
<path d="M133.496 306.123C133.496 306.123 103.962 297.51 78.7341 278.231C53.5064 258.952 39.5177 244.666 37.0987 245.311C34.6796 245.958 27.869 253.003 28.2787 257.31C28.6885 261.617 64.9913 293.613 92.0672 306.123C119.14 318.634 134.935 322.328 134.935 322.328L133.496 306.123Z" fill="#728596"/>
<path d="M343.115 233.311L357.677 220.391L367.419 222.236C367.419 222.236 384.341 310.84 355.267 352.99C326.193 395.139 343.115 233.311 343.115 233.311Z" fill="#3D4144"/>
<path d="M157.288 233.311L142.726 220.391L132.985 222.236C132.985 222.236 116.063 310.84 145.137 352.99C174.211 395.139 157.288 233.311 157.288 233.311Z" fill="#3D4144"/>
<path d="M250.202 462.958C297.085 463.749 342.702 446.621 342.702 446.621L341.66 422.447L328.553 402.114C327.315 402.32 288.483 402.32 250.202 402.267C211.921 402.317 173.091 402.32 171.851 402.114L158.744 422.447L157.701 446.621C157.701 446.621 203.318 463.749 250.202 462.958Z" fill="#3D4144"/>
<path d="M250.202 442.517C333.939 442.65 342.909 420.573 342.909 420.573C378.186 297.512 357.677 220.391 357.677 220.391L302.505 209.316L293.685 198.241H206.721L197.901 209.316L142.729 220.391C142.729 220.391 122.218 297.51 157.498 420.573C157.498 420.573 166.464 442.647 250.202 442.517Z" fill="#576673"/>
<path d="M250.202 387.334C250.637 387.334 251.069 387.331 251.504 387.328C314.923 386.865 365.457 333.309 363.403 269.922C362.368 238.039 357.677 220.388 357.677 220.388L302.505 209.313L293.685 198.238H206.721L197.901 209.313L142.729 220.388C142.729 220.388 138.038 238.036 137.003 269.922C134.949 333.309 185.481 386.865 248.902 387.328C249.331 387.331 249.767 387.334 250.202 387.334Z" fill="#728596"/>
<path d="M250.202 227.82C260.443 227.82 270.685 226.204 280.491 222.974C298.588 217.011 302.502 209.316 302.502 209.316V159.476L250.202 156.95L197.901 159.476L197.901 209.316C197.901 209.316 201.812 217.011 219.913 222.974C229.719 226.204 239.96 227.82 250.202 227.82Z" fill="#576673"/>
<path d="M250.202 200.287C280.044 200.287 297.17 178.959 300.657 174.55C313.481 158.332 324.039 113.941 324.039 113.941L319.425 106.557L250.202 103.872L180.979 106.557L176.364 113.941C176.364 113.941 186.922 158.329 199.746 174.55C203.234 178.959 220.359 200.287 250.202 200.287Z" fill="#728596"/>
<path d="M250.202 186.897C274.197 186.897 302.502 164.397 320.903 125.765C322.601 119.766 323.675 115.445 323.946 114.317L313.668 106.334L301.96 105.879L250.199 118.047L198.438 105.879L186.73 106.334L176.452 114.317C176.726 115.445 177.8 119.766 179.495 125.765C197.901 164.397 226.203 186.897 250.202 186.897Z" fill="#576673"/>
<path d="M250.202 115.665L324.039 77.6384C320.349 53.64 302.887 34.7538 293.14 30.3905C279.536 24.2976 264.869 21.2512 250.202 21.2512C235.535 21.2512 220.865 24.2976 207.263 30.3905C197.519 34.7538 180.058 53.6428 176.367 77.6384L250.202 115.665Z" fill="#728596"/>
<path d="M250.202 90.9799C268.056 90.2762 287.276 89.5189 302.096 88.9367L324.039 77.6355C323.87 76.5419 323.644 75.4708 323.421 74.3969C319.572 55.4684 308.708 43.8479 308.708 43.8479C308.708 43.8479 308.349 52.2524 298.196 58.56C296.113 59.8543 293.781 60.7445 291.388 61.338C286.632 62.5221 281.655 62.2932 276.848 61.3295C268.056 59.5689 258.928 58.2153 250.202 57.7433C241.472 58.2153 232.347 59.5689 223.555 61.3295C218.748 62.2904 213.772 62.5221 209.016 61.338C206.622 60.7417 204.291 59.8515 202.208 58.56C192.057 52.2524 191.695 43.8479 191.695 43.8479C191.695 43.8479 180.832 55.4684 176.983 74.3969C176.76 75.468 176.531 76.539 176.364 77.6355L198.308 88.9367C213.127 89.5189 232.344 90.2762 250.202 90.9799Z" fill="#576673"/>
<path d="M250.202 62.6351C257.984 62.6351 265.764 63.5564 273.383 65.3961L324.039 77.6384C324.039 77.6384 327.73 93.6363 324.039 113.941C324.039 113.941 309.556 149.721 268.189 175.209C262.67 178.609 256.436 180.31 250.202 180.31C243.968 180.31 237.733 178.609 232.214 175.209C190.847 149.721 176.364 113.941 176.364 113.941C172.673 93.6363 176.364 77.6384 176.364 77.6384L227.02 65.3961C234.636 63.5536 242.419 62.6351 250.202 62.6351Z" fill="#B2C8D8"/>
<path d="M250.202 180.347C256.385 180.347 262.568 178.662 268.048 175.294C309.522 149.8 324.039 113.941 324.039 113.941C324.585 110.934 324.955 108.038 325.215 105.26C317.093 120.472 297.283 143.343 250.202 150.586C203.121 143.343 183.313 120.472 175.188 105.26C175.448 108.04 175.816 110.934 176.364 113.941C176.364 113.941 190.878 149.8 232.355 175.294C237.835 178.662 244.018 180.347 250.202 180.347Z" fill="#95ADBC"/>
<path d="M262.814 161.319C260.717 161.319 259.019 159.621 259.019 157.524V79.382C259.019 77.2851 260.717 75.5867 262.814 75.5867C264.911 75.5867 266.609 77.2851 266.609 79.382V157.527C266.609 159.621 264.911 161.319 262.814 161.319Z" fill="#4C4C4C"/>
<path d="M286.095 149.218C283.998 149.218 282.299 147.52 282.299 145.423V81.4309C282.299 79.334 283.998 77.6355 286.095 77.6355C288.192 77.6355 289.89 79.334 289.89 81.4309V145.423C289.89 147.52 288.192 149.218 286.095 149.218Z" fill="#4C4C4C"/>
<path d="M308.708 127.938C306.611 127.938 304.913 126.24 304.913 124.143V84.661C304.913 82.5669 306.611 80.8656 308.708 80.8656C310.805 80.8656 312.504 82.5641 312.504 84.661V124.143C312.501 126.24 310.802 127.938 308.708 127.938Z" fill="#4C4C4C"/>
<path d="M237.586 161.319C239.683 161.319 241.382 159.621 241.382 157.524V79.382C241.382 77.2851 239.683 75.5867 237.586 75.5867C235.49 75.5867 233.791 77.2851 233.791 79.382V157.527C233.794 159.621 235.492 161.319 237.586 161.319Z" fill="#4C4C4C"/>
<path d="M214.309 149.218C216.406 149.218 218.104 147.52 218.104 145.423V81.4309C218.104 79.334 216.406 77.6355 214.309 77.6355C212.212 77.6355 210.513 79.334 210.513 81.4309V145.423C210.513 147.52 212.212 149.218 214.309 149.218Z" fill="#4C4C4C"/>
<path d="M191.695 127.938C193.789 127.938 195.49 126.24 195.49 124.143V84.661C195.49 82.5669 193.792 80.8656 191.695 80.8656C189.598 80.8656 187.9 82.5641 187.9 84.661V124.143C187.902 126.24 189.601 127.938 191.695 127.938Z" fill="#4C4C4C"/>
<path d="M302.299 696.64C281.011 681.131 279.567 614.477 280.242 581.017C266.677 588.26 256.973 593.576 256.973 593.576C260.177 609.884 268.537 737.213 270.204 757.557C270.425 760.013 270.204 762.019 271.354 763.636C272.335 765.012 273.587 765.097 275.104 764.139C276.95 763.322 279.408 761.737 282.729 760.013C291.035 755.706 292.267 739.092 322.725 736.323C353.184 733.553 348.261 760.321 352.26 756.011C353.633 754.533 362.908 741.045 362.055 712.025C343.369 710.349 315.525 706.279 302.299 696.64Z" fill="#576673"/>
<path d="M198.104 696.64C219.393 681.131 220.837 614.477 220.161 581.017C233.726 588.26 243.431 593.576 243.431 593.576C240.226 609.884 231.867 737.213 230.202 757.557C229.982 760.013 230.202 762.019 229.052 763.636C228.071 765.012 226.819 765.097 225.302 764.139C223.456 763.322 220.998 761.737 217.677 760.013C209.372 755.706 208.14 739.092 177.681 736.323C147.222 733.553 152.145 760.321 148.146 756.011C146.773 754.533 137.498 741.045 138.351 712.025C157.034 710.349 184.879 706.279 198.104 696.64Z" fill="#576673"/>
<path d="M360.119 362.762C360.119 362.762 358.994 350.508 372.429 339.801C385.864 329.093 438.594 284.281 449.313 288.865C460.032 293.446 450.362 318.227 447.739 334.533C445.117 350.839 451.727 391.426 447.462 398.819C443.198 406.215 443.528 400.828 420.694 407.868C397.86 414.907 387.695 425.315 382.863 422.051C378.033 418.787 376.71 395.428 371.762 386.41C366.817 377.389 359.681 367.597 360.119 362.762Z" fill="#728596"/>
<path d="M140.284 362.762C140.284 362.762 141.409 350.508 127.974 339.801C114.54 329.093 61.8064 284.281 51.0874 288.865C40.3684 293.446 50.0389 318.227 52.6615 334.533C55.284 350.839 48.674 391.426 52.9384 398.819C57.2029 406.215 56.8722 400.828 79.7063 407.868C102.54 414.907 112.705 425.315 117.538 422.051C122.37 418.787 123.69 395.428 128.638 386.41C133.587 377.389 140.722 367.597 140.284 362.762Z" fill="#728596"/>
<path d="M447.465 398.819C448.745 396.6 449.036 391.367 448.901 384.728C430.862 386.56 403.75 386.981 393.37 374.951C384.564 364.743 380.107 348.279 377.858 335.401C375.716 337.147 373.819 338.69 372.429 339.801C358.994 350.508 360.119 362.762 360.119 362.762C359.681 367.597 366.817 377.389 371.765 386.41C376.713 395.431 378.033 418.787 382.865 422.051C387.698 425.315 397.863 414.907 420.697 407.868C443.531 400.828 443.201 406.215 447.465 398.819Z" fill="#576673"/>
<path d="M52.9384 398.819C51.6582 396.6 51.3672 391.367 51.5028 384.728C69.5412 386.56 96.6538 386.981 107.034 374.951C115.84 364.743 120.296 348.279 122.546 335.401C124.688 337.147 126.584 338.69 127.974 339.801C141.409 350.508 140.284 362.762 140.284 362.762C140.722 367.597 133.587 377.389 128.638 386.41C123.69 395.431 122.37 418.787 117.538 422.051C112.705 425.315 102.54 414.907 79.7063 407.868C56.875 400.828 57.2029 406.215 52.9384 398.819Z" fill="#576673"/>
<path d="M387.735 438.705C387.735 438.705 406.355 426.149 428.604 424.278C450.851 422.408 463.748 420.918 465.543 428.893C467.337 436.868 464.017 443.586 461.804 458.812C459.591 474.039 445.04 550.578 442.384 554.67C439.73 558.762 402.147 555.532 396.832 548.978C391.516 542.425 382.334 483.062 384.148 467.4C385.954 451.832 384.417 442.941 387.735 438.705Z" fill="#728596"/>
<path d="M112.669 438.705C112.669 438.705 94.0482 426.149 71.7991 424.278C49.5529 422.408 36.655 420.918 34.8605 428.893C33.066 436.868 36.3865 443.586 38.5993 458.812C40.8121 474.039 55.366 550.578 58.0196 554.67C60.6732 558.762 98.2562 555.532 103.572 548.978C108.888 542.422 118.069 483.062 116.255 467.4C114.449 451.832 115.986 442.941 112.669 438.705Z" fill="#728596"/>
<path d="M419.524 514.301C409.396 497.517 406.72 451.097 406.019 429.622C395.065 433.765 387.735 438.705 387.735 438.705C384.414 442.941 385.951 451.829 384.148 467.403C382.334 483.065 391.516 542.425 396.832 548.981C402.147 555.538 439.73 558.765 442.384 554.673C443.186 553.435 445.077 545.565 447.383 534.792C437.178 531.047 425.843 524.771 419.524 514.301Z" fill="#576673"/>
<path d="M80.8763 514.301C91.0046 497.517 93.6809 451.097 94.3845 429.622C105.338 433.765 112.669 438.705 112.669 438.705C115.989 442.941 114.452 451.829 116.255 467.403C118.069 483.065 108.888 542.425 103.572 548.981C98.2562 555.538 60.6732 558.765 58.0196 554.673C57.217 553.435 55.3264 545.565 53.0204 534.792C63.2251 531.047 74.5573 524.771 80.8763 514.301Z" fill="#576673"/>
<path d="M398.301 559.491C398.301 559.491 386.234 571.94 385.525 577.693C384.815 583.447 375.026 598.114 377.324 601.022C379.621 603.93 390.595 599.315 394.325 593.259C398.055 587.203 398.064 588.924 398.632 590.117C399.2 591.309 395.532 621.386 393.443 629.036C391.358 636.686 373.133 655.428 377.293 659.291C381.452 663.155 403.908 644.017 406.358 637.266C408.805 630.514 411.88 621.997 411.88 621.997C411.88 621.997 410.922 636.2 408.602 640.476C406.282 644.752 392.903 656.751 397.374 659.732C401.845 662.714 416.274 651.836 420.968 642.985C425.665 634.131 426.423 624.58 426.423 624.58C426.423 624.58 425.08 637.152 423.486 641.869C421.893 646.586 416.899 650.073 419.109 651.715C421.316 653.357 432.069 644.641 434.039 638.427C436.006 632.215 436.672 623.585 436.672 623.585C436.672 623.585 436.314 636.644 435.115 639.868C433.917 643.093 431.936 645.396 432.775 645.546C433.615 645.695 440.64 641.318 442.35 632.56C444.06 623.802 444.486 607.318 443.435 596.506C442.709 589.031 440.488 577.784 439.185 571.553C438.588 568.695 436.591 566.361 433.869 565.307L429.449 563.595C419.538 559.76 408.859 558.352 398.301 559.491Z" fill="#728596"/>
<path d="M102.102 559.491C102.102 559.491 114.169 571.94 114.879 577.693C115.588 583.447 125.377 598.114 123.08 601.022C120.782 603.93 109.809 599.315 106.079 593.259C102.348 587.203 102.34 588.924 101.772 590.117C101.204 591.312 104.872 621.386 106.96 629.036C109.046 636.686 127.271 655.428 123.111 659.291C118.951 663.155 96.4955 644.017 94.0454 637.266C91.5981 630.514 88.5234 621.997 88.5234 621.997C88.5234 621.997 89.4814 636.2 91.8016 640.476C94.1217 644.752 107.5 656.751 103.029 659.732C98.5585 662.714 84.129 651.836 79.435 642.985C74.7382 634.131 73.9808 624.58 73.9808 624.58C73.9808 624.58 75.3232 637.152 76.917 641.869C78.5109 646.586 83.5044 650.073 81.2945 651.715C79.0846 653.357 68.3345 644.641 66.3647 638.427C64.3978 632.215 63.7309 623.585 63.7309 623.585C63.7309 623.585 64.0898 636.644 65.288 639.868C66.4863 643.093 68.4673 645.396 67.628 645.546C66.7886 645.695 59.7632 641.318 58.0535 632.56C56.3437 623.802 55.917 607.318 56.9683 596.506C57.6946 589.031 59.9158 577.784 61.2186 571.553C61.8149 568.695 63.8129 566.361 66.5343 565.307L70.9542 563.595C80.8621 559.76 91.5416 558.352 102.102 559.491Z" fill="#728596"/>
<path d="M275.398 776.765C274.621 772.484 277.111 768.248 281.226 766.835C285.829 765.255 291.962 762.426 296.658 757.557C305.119 748.788 318.503 744.02 332.809 747.098C347.114 750.175 350.499 754.327 350.499 761.867C350.499 769.404 353.882 787.555 342.038 792.941C330.194 798.325 312.196 805.862 301.121 796.788C290.045 787.71 276.509 782.79 275.432 776.943C275.418 776.881 275.407 776.822 275.398 776.765Z" fill="#728596"/>
<path d="M225.005 776.765C225.782 772.484 223.292 768.248 219.178 766.835C214.574 765.255 208.442 762.426 203.745 757.557C195.284 748.788 181.903 744.02 167.595 747.098C153.29 750.175 149.904 754.327 149.904 761.867C149.904 769.404 146.519 787.555 158.365 792.941C170.209 798.325 188.208 805.862 199.283 796.788C210.358 787.71 223.894 782.79 224.971 776.943C224.985 776.881 224.994 776.822 225.005 776.765Z" fill="#728596"/>
<path d="M350.884 770.314C342.807 774.943 327.128 781.728 309.539 777.706C297.348 774.92 290.009 769.729 285.628 765.049C284.085 765.75 282.582 766.366 281.228 766.832C277.111 768.245 274.621 772.481 275.401 776.763C275.412 776.822 275.424 776.878 275.432 776.938C276.509 782.785 290.045 787.705 301.121 796.782C312.196 805.856 330.194 798.319 342.038 792.936C350.522 789.081 351.186 778.681 350.884 770.314Z" fill="#576673"/>
<path d="M149.52 770.314C157.596 774.943 173.275 781.728 190.864 777.706C203.056 774.92 210.395 769.729 214.775 765.049C216.321 765.75 217.821 766.366 219.175 766.832C223.293 768.245 225.782 772.481 225.002 776.763C224.991 776.822 224.982 776.878 224.971 776.938C223.894 782.785 210.358 787.705 199.283 796.782C188.208 805.856 170.209 798.319 158.365 792.936C149.882 789.081 149.217 778.681 149.52 770.314Z" fill="#576673"/>
<path d="M272.044 788.629C272.044 788.629 280.044 795.705 291.733 803.09C303.424 810.474 316.344 814.473 326.806 809.858C337.265 805.243 352.342 792.322 355.416 796.321C358.494 800.32 354.8 800.32 352.955 816.934C351.11 833.548 344.033 946.351 340.956 964.197C337.878 982.04 340.34 979.616 333.263 984.194C326.19 988.775 296.345 995.885 288.039 984.194C279.733 972.503 280.154 860.621 276.868 843.086C273.581 825.551 268.042 806.475 267.734 799.091C267.429 791.706 268.952 786.046 272.044 788.629Z" fill="#728596"/>
<path d="M228.357 788.629C228.357 788.629 220.359 795.705 208.668 803.09C196.977 810.474 184.056 814.473 173.594 809.858C163.135 805.243 148.059 792.322 144.981 796.321C141.904 800.32 145.597 800.32 147.443 816.934C149.288 833.548 156.364 946.351 159.442 964.197C162.519 982.04 160.058 979.616 167.134 984.194C174.208 988.775 204.053 995.885 212.359 984.194C220.664 972.503 220.243 860.621 223.533 843.086C226.819 825.551 232.358 806.475 232.666 799.091C232.972 791.706 231.451 786.046 228.357 788.629Z" fill="#728596"/>
<path d="M328.038 970.041C315.533 973.387 300.657 890.772 303.735 861.237C305.942 840.056 296.619 815.145 291.156 802.711C279.793 795.468 272.047 788.629 272.047 788.629C268.955 786.046 267.432 791.706 267.74 799.091C268.048 806.475 273.587 825.548 276.873 843.086C280.16 860.621 279.739 972.503 288.045 984.194C296.35 995.885 326.196 988.775 333.269 984.194C340.343 979.613 337.884 982.04 340.962 964.197C341.148 963.109 341.354 961.877 341.569 960.54C337.177 965.031 332.396 968.874 328.038 970.041Z" fill="#576673"/>
<path d="M172.365 970.041C184.87 973.387 199.746 890.772 196.669 861.237C194.462 840.056 203.785 815.145 209.247 802.711C220.611 795.468 228.357 788.629 228.357 788.629C231.448 786.046 232.972 791.706 232.664 799.091C232.356 806.475 226.817 825.548 223.53 843.086C220.243 860.621 220.664 972.503 212.356 984.194C204.05 995.885 174.205 988.775 167.131 984.194C160.058 979.613 162.517 982.04 159.439 964.197C159.253 963.109 159.049 961.877 158.831 960.54C163.226 965.031 168.007 968.874 172.365 970.041Z" fill="#576673"/>
<path d="M409.26 1051.07C409.26 1051.07 409.91 1047.37 410.117 1042.53C399.59 1043.25 376.159 1043.87 356.603 1037.42C330.502 1028.81 331.028 1016.19 312.153 1018.96C293.276 1021.73 292.66 1015.57 292.66 1006.65C292.66 997.73 292.66 992.807 292.66 992.807C292.66 992.807 286.157 989.648 281.494 985.149C277.922 1004.34 280.044 1035.88 280.044 1035.88L300.657 1039.88C300.657 1039.88 304.656 1029.42 312.046 1030.96C319.436 1032.49 329.27 1046.95 353.574 1050.34C377.878 1053.72 409.26 1051.07 409.26 1051.07Z" fill="#576673"/>
<path d="M91.1431 1051.07C91.1431 1051.07 90.4931 1047.37 90.2868 1042.53C100.814 1043.25 124.247 1043.87 143.8 1037.42C169.901 1028.81 169.375 1016.19 188.25 1018.96C207.128 1021.73 207.741 1015.57 207.741 1006.65C207.741 997.73 207.741 992.807 207.741 992.807C207.741 992.807 214.244 989.648 218.907 985.149C222.479 1004.34 220.356 1035.88 220.356 1035.88L199.743 1039.88C199.743 1039.88 195.745 1029.42 188.355 1030.96C180.968 1032.49 171.13 1046.95 146.827 1050.34C122.523 1053.72 91.1431 1051.07 91.1431 1051.07Z" fill="#576673"/>
<path d="M250.202 239.189C256.049 238.884 262.39 237.531 268.661 234.337C290.402 223.262 304.351 200.287 304.351 200.287C304.351 200.287 313.787 197.003 321.991 200.287C330.194 203.571 329.785 208.084 329.785 208.084C329.785 208.084 341.041 206.854 349.36 208.493C357.68 210.135 367.421 222.236 367.421 222.236C367.421 222.236 343.731 252.797 335.117 279.87C327.637 303.379 289.842 321.324 250.205 325.368C210.567 321.321 172.772 303.379 165.292 279.87C156.678 252.797 132.988 222.236 132.988 222.236C132.988 222.236 142.729 210.135 151.049 208.493C159.368 206.852 170.624 208.084 170.624 208.084C170.624 208.084 170.215 203.571 178.418 200.287C186.622 197.003 196.058 200.287 196.058 200.287C196.058 200.287 210.005 223.262 231.748 234.337C238.013 237.531 244.355 238.884 250.202 239.189Z" fill="#CC5050"/>
<path d="M250.202 325.368C289.839 321.321 327.634 303.379 335.115 279.87C343.728 252.797 367.419 222.236 367.419 222.236C367.419 222.236 364.853 219.06 361.241 215.739C356.425 218.557 347.433 225.362 333.885 241.617C312.348 267.461 316.144 277.612 286.095 287.149C274.158 290.939 261.328 291.937 250.202 291.762C239.076 291.937 226.246 290.939 214.309 287.149C184.26 277.612 188.055 267.461 166.521 241.617C152.973 225.362 143.978 218.554 139.165 215.739C135.551 219.057 132.988 222.236 132.988 222.236C132.988 222.236 156.678 252.797 165.292 279.87C172.769 303.379 210.564 321.321 250.202 325.368Z" fill="#BA4545"/>
<path d="M423.207 612.959C417.668 608.138 413.259 613.267 408.438 610.088C403.617 606.909 409.772 596.243 409.257 588.347C408.746 580.452 397.055 581.065 392.03 577.476C388.987 575.3 390.385 570.312 391.96 566.709C388.924 570.481 385.869 574.884 385.522 577.693C384.813 583.447 375.023 598.114 377.321 601.022C379.618 603.93 390.592 599.315 394.322 593.259C398.052 587.203 398.061 588.921 398.629 590.117C399.197 591.312 395.529 621.386 393.44 629.036C391.355 636.686 373.13 655.428 377.29 659.291C381.45 663.155 403.905 644.017 406.355 637.266C408.802 630.514 411.877 621.997 411.877 621.997C411.877 621.997 410.919 636.2 408.599 640.476C406.279 644.752 392.901 656.751 397.371 659.729C401.842 662.711 416.272 651.834 420.966 642.983C424.829 635.697 426.013 628.024 426.315 625.506C425.976 628.471 424.82 637.915 423.484 641.866C421.89 646.583 416.896 650.07 419.106 651.712C421.313 653.354 432.066 644.639 434.036 638.427C436.003 632.215 436.67 623.585 436.67 623.585C436.67 623.585 436.311 636.644 435.113 639.868C433.914 643.093 431.933 645.396 432.773 645.546C433.612 645.695 440.637 641.318 442.347 632.56C443.152 628.434 443.661 622.582 443.879 616.427C438.357 618.863 427.677 616.85 423.207 612.959Z" fill="#576673"/>
<path d="M77.1968 612.959C82.7358 608.138 87.1443 613.267 91.9655 610.088C96.7866 606.909 90.6316 596.243 91.1459 588.347C91.6574 580.452 103.349 581.065 108.373 577.476C111.417 575.3 110.018 570.312 108.444 566.709C111.479 570.481 114.534 574.884 114.882 577.693C115.591 583.447 125.38 598.114 123.083 601.022C120.785 603.93 109.812 599.315 106.081 593.259C102.351 587.203 102.343 588.921 101.775 590.117C101.206 591.312 104.875 621.386 106.963 629.036C109.049 636.686 127.274 655.428 123.114 659.291C118.954 663.155 96.4984 644.017 94.0482 637.266C91.6009 630.514 88.5262 621.997 88.5262 621.997C88.5262 621.997 89.4842 636.2 91.8044 640.476C94.1245 644.752 107.503 656.751 103.032 659.729C98.5613 662.711 84.1318 651.834 79.4378 642.983C75.5747 635.697 74.3906 628.024 74.0882 625.506C74.4273 628.471 75.586 637.915 76.9199 641.866C78.5137 646.583 83.5072 650.07 81.2973 651.712C79.0902 653.354 68.3373 644.639 66.3676 638.427C64.4007 632.215 63.7337 623.585 63.7337 623.585C63.7337 623.585 64.0926 636.644 65.2909 639.868C66.4891 643.093 68.4701 645.396 67.6308 645.546C66.7915 645.695 59.766 641.318 58.0563 632.56C57.2509 628.434 56.7422 622.582 56.5246 616.427C62.0466 618.863 72.7261 616.85 77.1968 612.959Z" fill="#576673"/>
<path d="M250.202 23.7211C268.941 23.6278 278.66 29.0283 278.66 29.0283C278.66 29.0283 266.816 25.8349 250.202 26.3747C233.585 25.8349 221.744 29.0283 221.744 29.0283C221.744 29.0283 231.463 23.625 250.202 23.7211Z" fill="#A3BBCE"/>
<path d="M443.511 228.9C443.511 228.9 433.974 213.312 412.643 208.389C399.649 205.39 390.493 210.133 390.493 210.133C390.493 210.133 427.923 211.879 443.511 228.9Z" fill="#A3BBCE"/>
<path d="M56.892 228.9C56.892 228.9 66.4297 213.312 87.7604 208.389C100.757 205.39 109.911 210.133 109.911 210.133C109.911 210.133 72.4802 211.879 56.892 228.9Z" fill="#A3BBCE"/>
<path d="M447.716 304.532C447.716 304.532 440.796 321.454 440.948 336.836C441.101 352.218 442.949 369.448 442.949 369.448C442.949 369.448 436.641 349.861 437.258 334.94C437.874 320.019 443.102 300.892 443.102 300.892C443.102 300.892 444.026 295.611 447.716 298.072C449.74 299.423 448.242 303.173 447.716 304.532Z" fill="#A3BBCE"/>
<path d="M52.6869 304.532C52.6869 304.532 59.6106 321.454 59.4552 336.836C59.3026 352.218 57.4544 369.448 57.4544 369.448C57.4544 369.448 63.762 349.861 63.1459 334.94C62.5299 320.019 57.3018 300.892 57.3018 300.892C57.3018 300.892 56.3777 295.611 52.6869 298.072C50.6635 299.423 52.1613 303.173 52.6869 304.532Z" fill="#A3BBCE"/>
<path d="M447.383 511.022C447.383 511.022 459.408 456.464 460.227 444.363C461.047 432.262 459.947 428.009 456.601 429.622C453.255 431.236 455.46 468.361 447.383 511.022Z" fill="#A3BBCE"/>
<path d="M53.0204 511.022C53.0204 511.022 40.9957 456.464 40.1762 444.363C39.3567 432.262 40.456 428.009 43.802 429.622C47.1479 431.236 44.9437 468.361 53.0204 511.022Z" fill="#A3BBCE"/>
<path d="M354.19 566.709C354.19 566.709 348.06 586.906 351.587 613.471C355.114 640.035 356.807 684.643 356.807 684.643C356.807 684.643 349.926 635.725 347.289 617.266C344.652 598.806 344.079 576.656 347.289 570.501C350.496 564.349 354.19 566.709 354.19 566.709Z" fill="#A3BBCE"/>
<path d="M146.213 566.709C146.213 566.709 152.343 586.906 148.816 613.471C145.289 640.035 143.596 684.643 143.596 684.643C143.596 684.643 150.478 635.725 153.114 617.266C155.751 598.806 156.325 576.656 153.114 570.501C149.907 564.349 146.213 566.709 146.213 566.709Z" fill="#A3BBCE"/>
<path d="M441.05 606.191C440.948 605.883 438.69 579.629 436.845 574.093C435 568.554 428.435 564.044 425.77 563.838C423.105 563.631 424.846 565.991 428.333 568.144C431.82 570.298 434.844 575.947 436.356 581.02C437.871 586.09 441.05 606.191 441.05 606.191Z" fill="#A3BBCE"/>
<path d="M59.3534 606.191C59.4552 605.883 61.7131 579.629 63.5585 574.093C65.4039 568.554 71.9687 564.044 74.6336 563.838C77.2985 563.631 75.5577 565.991 72.0704 568.144C68.5832 570.298 65.5593 575.947 64.0474 581.02C62.5327 586.09 59.3534 606.191 59.3534 606.191Z" fill="#A3BBCE"/>
<path d="M351.522 305.917C351.522 305.917 338.602 339.555 319.936 352.066C301.27 364.576 291.221 365.602 291.221 365.602C291.221 365.602 334.295 339.351 351.522 305.917Z" fill="#A3BBCE"/>
<path d="M148.881 305.917C148.881 305.917 161.802 339.555 180.467 352.066C199.133 364.576 209.182 365.602 209.182 365.602C209.182 365.602 166.108 339.351 148.881 305.917Z" fill="#A3BBCE"/>
<path d="M342.702 453.592L350.036 491.743L338.345 455.133L342.702 453.592Z" fill="#A3BBCE"/>
<path d="M157.698 453.592L150.368 491.743L162.059 455.133L157.698 453.592Z" fill="#A3BBCE"/>
<path d="M322.706 749.969C322.706 749.969 334.397 749.763 340.139 752.84C345.882 755.918 346.291 760.943 346.291 760.943C346.291 760.943 340.345 751.916 322.706 749.969Z" fill="#A3BBCE"/>
<path d="M177.698 749.969C177.698 749.969 166.007 749.763 160.264 752.84C154.522 755.918 154.112 760.943 154.112 760.943C154.112 760.943 160.058 751.916 177.698 749.969Z" fill="#A3BBCE"/>
<path d="M339.012 952.814C339.012 952.198 352.138 804.63 351.522 802.578C350.906 800.526 347.289 803.09 347.289 803.09L339.012 952.814Z" fill="#A3BBCE"/>
<path d="M161.392 952.814C161.392 952.198 148.265 804.63 148.881 802.578C149.497 800.526 153.114 803.09 153.114 803.09L161.392 952.814Z" fill="#A3BBCE"/>
<path d="M342.343 987.367C342.496 987.271 360.955 1005.88 371.109 1010.65C381.263 1015.42 394.336 1018.04 399.414 1021.73C404.493 1025.42 403.261 1031.26 403.261 1031.26H399.723C399.723 1031.26 395.568 1021.57 387.723 1019.88C379.878 1018.19 370.188 1013.52 364.341 1009.31C358.497 1005.11 342.343 987.367 342.343 987.367Z" fill="#A3BBCE"/>
<path d="M158.057 987.367C157.905 987.271 139.445 1005.88 129.291 1010.65C119.137 1015.42 106.064 1018.04 100.986 1021.73C95.9106 1025.42 97.1399 1031.26 97.1399 1031.26H100.678C100.678 1031.26 104.832 1021.57 112.677 1019.88C120.522 1018.19 130.213 1013.52 136.06 1009.31C141.907 1005.11 158.057 987.367 158.057 987.367Z" fill="#A3BBCE"/>
<path d="M250.202 285.4C275.8 286.03 298.196 271.397 298.196 270.552C298.196 270.552 277.122 280.226 250.202 280.997C223.281 280.229 202.208 270.552 202.208 270.552C202.208 271.397 224.604 286.03 250.202 285.4Z" fill="#E58585"/>
<path d="M308.963 225.927C308.154 226.461 326.806 213.518 336.446 211.568C346.085 209.621 355.108 214.646 354.803 214.747C354.498 214.852 331.011 211.365 308.963 225.927Z" fill="#E58585"/>
<path d="M191.438 225.927C192.246 226.461 173.594 213.518 163.955 211.568C154.316 209.621 145.289 214.646 145.597 214.747C145.905 214.852 169.389 211.365 191.438 225.927Z" fill="#E58585"/>
<path d="M325.679 207.397C325.679 207.397 317.268 200.391 310.91 202.751C304.551 205.111 292.041 223.056 292.247 222.748C292.453 222.44 311.631 198.506 325.679 207.397Z" fill="#E58585"/>
<path d="M174.722 207.397C174.722 207.397 183.132 200.391 189.491 202.751C195.849 205.111 208.36 223.056 208.156 222.748C207.95 222.44 188.773 198.506 174.722 207.397Z" fill="#E58585"/>
</svg>
