<svg width="1540" height="1861" viewBox="0 0 1540 1861" fill="none" xmlns="http://www.w3.org/2000/svg">
<rect x="602" y="833" width="349" height="1023" fill="#7C4949" stroke="#623D3D" stroke-width="10"/>
<path d="M5 642C5 751.301 47.4785 850.239 116.012 921.245C139.665 1124.93 299.783 1283 494.5 1283C566.381 1283 633.548 1261.46 690.874 1224.03C753.298 1272.47 829.776 1301 912.5 1301C1123.58 1301 1294 1115.25 1294 887C1294 873.109 1293.37 859.376 1292.14 845.833C1434.44 785.587 1535 635.331 1535 460C1535 231.752 1364.58 46 1153.5 46C1072.89 46 998.214 73.0892 936.692 119.289C868.292 48.5099 775.658 5 673.5 5C516.338 5 381.715 107.977 323.195 254.799C143.187 281.434 5 444.86 5 642Z" fill="#34C855" stroke="#105E21" stroke-width="10"/>
</svg>
